<svg width="16" height="21" viewBox="0 0 16 21" fill="none" xmlns="http://www.w3.org/2000/svg">
<path d="M4.06179 18.9558L4.50474 19.1664C6.92109 20.3153 9.74883 20.2088 12.0732 18.8836C13.5727 18.0287 14.5 16.4343 14.5 14.7082V10C14.5 8.61929 13.3807 7.5 12 7.5L8.36122 7.5H5V3C5 1.89543 4.10457 1 3 1C1.89543 1 1 1.89543 1 3V3.99999L1 14.1097C1 16.1806 2.1916 18.0666 4.06179 18.9558Z" fill="#FFCF01"/>
<path d="M4.50474 19.1664L4.93414 18.2633L4.93414 18.2633L4.50474 19.1664ZM4.06179 18.9558L3.63239 19.8589L3.63239 19.8589L4.06179 18.9558ZM7.36122 12C7.36122 12.5523 7.80893 13 8.36122 13C8.9135 13 9.36122 12.5523 9.36122 12H7.36122ZM11 12C11 12.5523 11.4477 13 12 13C12.5523 13 13 12.5523 13 12H11ZM4 12C4 12.5523 4.44772 13 5 13C5.55228 13 6 12.5523 6 12H4ZM12.0732 18.8836L12.5685 19.7524L12.5685 19.7524L12.0732 18.8836ZM4.93414 18.2633L4.49119 18.0526L3.63239 19.8589L4.07534 20.0695L4.93414 18.2633ZM13.5 10V14.7082H15.5V10H13.5ZM7.36122 7.5L7.36122 12H9.36122V7.5L7.36122 7.5ZM8.36122 8.5H12V6.5L8.36122 6.5V8.5ZM11 7.5V12H13V7.5H11ZM5 8.5H8.36122V6.5H5V8.5ZM4 7.5V12H6L6 7.5H4ZM0 3.99999L0 14.1097H2L2 3.99999H0ZM2 3.99999V3H0V3.99999H2ZM4 3L4 7.5H6V3L4 3ZM15.5 10C15.5 8.067 13.933 6.5 12 6.5V8.5C12.8284 8.5 13.5 9.17157 13.5 10H15.5ZM11.5779 18.0149C9.53729 19.1783 7.05485 19.2716 4.93414 18.2633L4.07534 20.0695C6.78733 21.3589 9.96037 21.2394 12.5685 19.7524L11.5779 18.0149ZM4.49119 18.0526C2.96953 17.3292 2 15.7946 2 14.1097H0C0 16.5665 1.41367 18.804 3.63239 19.8589L4.49119 18.0526ZM2 3C2 2.44772 2.44772 2 3 2V0C1.34315 0 0 1.34315 0 3H2ZM3 2C3.55228 2 4 2.44772 4 3L6 3C6 1.34315 4.65685 0 3 0V2ZM12.5685 19.7524C14.3797 18.7197 15.5 16.7939 15.5 14.7082H13.5C13.5 16.0747 12.7657 17.3377 11.5779 18.0149L12.5685 19.7524Z" fill="#073FC9"/>
</svg>
