<svg width="40" height="453" viewBox="0 0 40 453" fill="none" xmlns="http://www.w3.org/2000/svg">
<path d="M0.5 11.212C0.5 10.131 0.876822 9.0932 1.6082 8.34371C11.4963 -1.78936 26.7499 -1.94162 37.9958 6.94337C38.97 7.71309 39.5 8.9251 39.5 10.2028V437.54C39.5 438.321 39.1327 439.059 38.509 439.52C31.2959 444.845 25.6152 447.48 19.9894 447.5C14.3657 447.52 8.68627 444.928 1.47567 439.522C0.861063 439.062 0.5 438.329 0.5 437.555V11.212Z" fill="url(#paint0_linear_2:87)" stroke="#1E1E1E"/>
<path d="M39.5 440C39.5 443.365 37.4014 446.478 33.8696 448.773C30.3427 451.066 25.4404 452.5 20 452.5C14.5596 452.5 9.65734 451.066 6.13036 448.773C2.59864 446.478 0.5 443.365 0.5 440C0.5 436.635 2.59864 433.522 6.13036 431.227C9.65734 428.934 14.5596 427.5 20 427.5C25.4404 427.5 30.3427 428.934 33.8696 431.227C37.4014 433.522 39.5 436.635 39.5 440Z" fill="#89061C" stroke="#1E1E1E"/>
<defs>
<linearGradient id="paint0_linear_2:87" x1="0" y1="205.749" x2="40" y2="205.749" gradientUnits="userSpaceOnUse">
<stop stop-color="#DC0A2D"/>
<stop offset="0.104167" stop-color="#DC0A2D"/>
<stop offset="0.104267" stop-color="#E9677D"/>
<stop offset="0.291567" stop-color="#E85F76"/>
<stop offset="0.291667" stop-color="#DC0A2D"/>
<stop offset="0.484375" stop-color="#DC0A2D"/>
<stop offset="0.703125" stop-color="#DC0A2D"/>
<stop offset="0.703225" stop-color="#89061C"/>
<stop offset="1" stop-color="#89061C"/>
</linearGradient>
</defs>
</svg>
