<svg width="225" height="189" viewBox="0 0 225 189" fill="none" xmlns="http://www.w3.org/2000/svg">
<path d="M5 2.5H220C222.485 2.5 224.5 4.51472 224.5 7V184C224.5 186.482 222.466 188.5 219.978 188.5H20.707C19.4504 188.5 18.2329 187.975 17.3826 187.056L1.69655 170.098C0.927289 169.266 0.5 168.175 0.5 167.042V7C0.5 4.51472 2.51472 2.5 5 2.5Z" fill="#1E1E1E" stroke="#1E1E1E"/>
<path d="M5 0.5H220C222.485 0.5 224.5 2.51472 224.5 5V182C224.5 184.482 222.466 186.5 219.978 186.5H20.707C19.4504 186.5 18.2329 185.975 17.3826 185.056L1.69655 168.098C0.927289 167.266 0.5 166.175 0.5 165.042V5C0.5 2.51472 2.51472 0.5 5 0.5Z" fill="#DEDEDE" stroke="#1E1E1E"/>
<line x1="172" y1="157.5" x2="194" y2="157.5" stroke="black"/>
<line x1="172" y1="163.5" x2="194" y2="163.5" stroke="black"/>
<line x1="172" y1="169.5" x2="194" y2="169.5" stroke="black"/>
<line x1="172" y1="175.5" x2="194" y2="175.5" stroke="black"/>
<rect x="29.5" y="29.5" width="166" height="118" rx="4.5" fill="white" stroke="#1E1E1E"/>
<circle cx="98.5" cy="15.5" r="4" fill="#FF002C" stroke="#1E1E1E"/>
<circle cx="129.5" cy="15.5" r="4" fill="#FF002C" stroke="#1E1E1E"/>
</svg>
