<svg width="305" height="499" viewBox="0 0 305 499" fill="none" xmlns="http://www.w3.org/2000/svg">
<rect x="1" y="469" width="303" height="29" rx="9" fill="#8C061D" stroke="#1E1E1E" stroke-width="2"/>
<rect x="1" y="1" width="303" height="484" rx="9" fill="#DC0A2D" stroke="#1E1E1E" stroke-width="2"/>
<path d="M193.033 67H274C276.761 67 279 69.2386 279 72V463C279 465.761 276.761 468 274 468H14C11.2386 468 9 465.761 9 463V122.002C9 119.241 11.2386 117.002 14 117.002H147.37C148.87 117.002 150.29 116.33 151.24 115.169L189.163 68.8332C190.113 67.6729 191.533 67 193.033 67Z" stroke="#1E1E1E" stroke-linejoin="round"/>
<path d="M193.191 60H303.5V51H193.191C189.904 51 186.789 52.4699 184.7 55.0072L149.3 97.9928C147.211 100.53 144.096 102 140.809 102H1.5V111H140.809C144.096 111 147.211 109.53 149.3 106.993L184.7 64.0072C186.789 61.4699 189.904 60 193.191 60Z" fill="#8C061D" stroke="#1E1E1E" stroke-linejoin="round"/>
</svg>
